<svg width="132" height="20" viewBox="0 0 132 20" fill="none" xmlns="http://www.w3.org/2000/svg">
<g clip-path="url(#clip0_268485_3431)">
<path d="M10.5734 2.25782L12.3883 6.58282C12.4322 6.68779 12.504 6.77877 12.5958 6.84595C12.6876 6.91314 12.796 6.95398 12.9094 6.96407L17.5547 7.36564C17.6779 7.37554 17.7955 7.42179 17.8925 7.49852C17.9894 7.57525 18.0614 7.67902 18.0994 7.7967C18.1374 7.91438 18.1396 8.04068 18.1058 8.15961C18.0719 8.27855 18.0036 8.38478 17.9094 8.46486L14.3852 11.5391C14.2995 11.6143 14.2358 11.7114 14.2009 11.8199C14.1659 11.9284 14.161 12.0444 14.1867 12.1555L15.243 16.7289C15.2709 16.8484 15.263 16.9734 15.2204 17.0884C15.1777 17.2034 15.1022 17.3034 15.0032 17.3757C14.9041 17.4481 14.786 17.4898 14.6634 17.4955C14.5409 17.5012 14.4194 17.4707 14.3141 17.4078L10.3219 14.986C10.2249 14.927 10.1135 14.8958 10 14.8958C9.88647 14.8958 9.77513 14.927 9.67813 14.986L5.68594 17.4078C5.5806 17.4707 5.4591 17.5012 5.33656 17.4955C5.21403 17.4898 5.09588 17.4481 4.99684 17.3757C4.89781 17.3034 4.82226 17.2034 4.77962 17.0884C4.73697 16.9734 4.72912 16.8484 4.75703 16.7289L5.81328 12.1555C5.83896 12.0444 5.83406 11.9284 5.79913 11.8199C5.76419 11.7114 5.70051 11.6143 5.61484 11.5391L2.09063 8.46486C1.99641 8.38478 1.92806 8.27855 1.89423 8.15961C1.8604 8.04068 1.86261 7.91438 1.90058 7.7967C1.93856 7.67902 2.01058 7.57525 2.10755 7.49852C2.20451 7.42179 2.32206 7.37554 2.44531 7.36564L7.09063 6.96407C7.20396 6.95398 7.31239 6.91314 7.40422 6.84595C7.49605 6.77877 7.56779 6.68779 7.61172 6.58282L9.42656 2.25782C9.47504 2.146 9.55514 2.0508 9.65703 1.98392C9.75891 1.91704 9.87813 1.88141 10 1.88141C10.1219 1.88141 10.2411 1.91704 10.343 1.98392C10.4449 2.0508 10.525 2.146 10.5734 2.25782Z" fill="#FFA634" stroke="#FFA634" stroke-width="2" stroke-linecap="round" stroke-linejoin="round"/>
</g>
<g clip-path="url(#clip1_268485_3431)">
<path d="M38.5734 2.25782L40.3883 6.58282C40.4322 6.68779 40.504 6.77877 40.5958 6.84595C40.6876 6.91314 40.796 6.95398 40.9094 6.96407L45.5547 7.36564C45.6779 7.37554 45.7955 7.42179 45.8925 7.49852C45.9894 7.57525 46.0614 7.67902 46.0994 7.7967C46.1374 7.91438 46.1396 8.04068 46.1058 8.15961C46.0719 8.27855 46.0036 8.38478 45.9094 8.46486L42.3852 11.5391C42.2995 11.6143 42.2358 11.7114 42.2009 11.8199C42.1659 11.9284 42.161 12.0444 42.1867 12.1555L43.243 16.7289C43.2709 16.8484 43.263 16.9734 43.2204 17.0884C43.1777 17.2034 43.1022 17.3034 43.0032 17.3757C42.9041 17.4481 42.786 17.4898 42.6634 17.4955C42.5409 17.5012 42.4194 17.4707 42.3141 17.4078L38.3219 14.986C38.2249 14.927 38.1135 14.8958 38 14.8958C37.8865 14.8958 37.7751 14.927 37.6781 14.986L33.6859 17.4078C33.5806 17.4707 33.4591 17.5012 33.3366 17.4955C33.214 17.4898 33.0959 17.4481 32.9968 17.3757C32.8978 17.3034 32.8223 17.2034 32.7796 17.0884C32.737 16.9734 32.7291 16.8484 32.757 16.7289L33.8133 12.1555C33.839 12.0444 33.8341 11.9284 33.7991 11.8199C33.7642 11.7114 33.7005 11.6143 33.6148 11.5391L30.0906 8.46486C29.9964 8.38478 29.9281 8.27855 29.8942 8.15961C29.8604 8.04068 29.8626 7.91438 29.9006 7.7967C29.9386 7.67902 30.0106 7.57525 30.1075 7.49852C30.2045 7.42179 30.3221 7.37554 30.4453 7.36564L35.0906 6.96407C35.204 6.95398 35.3124 6.91314 35.4042 6.84595C35.496 6.77877 35.5678 6.68779 35.6117 6.58282L37.4266 2.25782C37.475 2.146 37.5551 2.0508 37.657 1.98392C37.7589 1.91704 37.8781 1.88141 38 1.88141C38.1219 1.88141 38.2411 1.91704 38.343 1.98392C38.4449 2.0508 38.525 2.146 38.5734 2.25782Z" fill="#FFA634" stroke="#FFA634" stroke-width="2" stroke-linecap="round" stroke-linejoin="round"/>
</g>
<g clip-path="url(#clip2_268485_3431)">
<path d="M66.5734 2.25782L68.3883 6.58282C68.4322 6.68779 68.504 6.77877 68.5958 6.84595C68.6876 6.91314 68.796 6.95398 68.9094 6.96407L73.5547 7.36564C73.6779 7.37554 73.7955 7.42179 73.8925 7.49852C73.9894 7.57525 74.0614 7.67902 74.0994 7.7967C74.1374 7.91438 74.1396 8.04068 74.1058 8.15961C74.0719 8.27855 74.0036 8.38478 73.9094 8.46486L70.3852 11.5391C70.2995 11.6143 70.2358 11.7114 70.2009 11.8199C70.1659 11.9284 70.161 12.0444 70.1867 12.1555L71.243 16.7289C71.2709 16.8484 71.263 16.9734 71.2204 17.0884C71.1777 17.2034 71.1022 17.3034 71.0032 17.3757C70.9041 17.4481 70.786 17.4898 70.6634 17.4955C70.5409 17.5012 70.4194 17.4707 70.3141 17.4078L66.3219 14.986C66.2249 14.927 66.1135 14.8958 66 14.8958C65.8865 14.8958 65.7751 14.927 65.6781 14.986L61.6859 17.4078C61.5806 17.4707 61.4591 17.5012 61.3366 17.4955C61.214 17.4898 61.0959 17.4481 60.9968 17.3757C60.8978 17.3034 60.8223 17.2034 60.7796 17.0884C60.737 16.9734 60.7291 16.8484 60.757 16.7289L61.8133 12.1555C61.839 12.0444 61.8341 11.9284 61.7991 11.8199C61.7642 11.7114 61.7005 11.6143 61.6148 11.5391L58.0906 8.46486C57.9964 8.38478 57.9281 8.27855 57.8942 8.15961C57.8604 8.04068 57.8626 7.91438 57.9006 7.7967C57.9386 7.67902 58.0106 7.57525 58.1075 7.49852C58.2045 7.42179 58.3221 7.37554 58.4453 7.36564L63.0906 6.96407C63.204 6.95398 63.3124 6.91314 63.4042 6.84595C63.496 6.77877 63.5678 6.68779 63.6117 6.58282L65.4266 2.25782C65.475 2.146 65.5551 2.0508 65.657 1.98392C65.7589 1.91704 65.8781 1.88141 66 1.88141C66.1219 1.88141 66.2411 1.91704 66.343 1.98392C66.4449 2.0508 66.525 2.146 66.5734 2.25782Z" fill="#FFA634" stroke="#FFA634" stroke-width="2" stroke-linecap="round" stroke-linejoin="round"/>
</g>
<g clip-path="url(#clip3_268485_3431)">
<path d="M94.5734 2.25782L96.3883 6.58282C96.4322 6.68779 96.504 6.77877 96.5958 6.84595C96.6876 6.91314 96.796 6.95398 96.9094 6.96407L101.555 7.36564C101.678 7.37554 101.795 7.42179 101.892 7.49852C101.989 7.57525 102.061 7.67902 102.099 7.7967C102.137 7.91438 102.14 8.04068 102.106 8.15961C102.072 8.27855 102.004 8.38478 101.909 8.46486L98.3852 11.5391C98.2995 11.6143 98.2358 11.7114 98.2009 11.8199C98.1659 11.9284 98.161 12.0444 98.1867 12.1555L99.243 16.7289C99.2709 16.8484 99.263 16.9734 99.2204 17.0884C99.1777 17.2034 99.1022 17.3034 99.0032 17.3757C98.9041 17.4481 98.786 17.4898 98.6634 17.4955C98.5409 17.5012 98.4194 17.4707 98.3141 17.4078L94.3219 14.986C94.2249 14.927 94.1135 14.8958 94 14.8958C93.8865 14.8958 93.7751 14.927 93.6781 14.986L89.6859 17.4078C89.5806 17.4707 89.4591 17.5012 89.3366 17.4955C89.214 17.4898 89.0959 17.4481 88.9968 17.3757C88.8978 17.3034 88.8223 17.2034 88.7796 17.0884C88.737 16.9734 88.7291 16.8484 88.757 16.7289L89.8133 12.1555C89.839 12.0444 89.8341 11.9284 89.7991 11.8199C89.7642 11.7114 89.7005 11.6143 89.6148 11.5391L86.0906 8.46486C85.9964 8.38478 85.9281 8.27855 85.8942 8.15961C85.8604 8.04068 85.8626 7.91438 85.9006 7.7967C85.9386 7.67902 86.0106 7.57525 86.1075 7.49852C86.2045 7.42179 86.3221 7.37554 86.4453 7.36564L91.0906 6.96407C91.204 6.95398 91.3124 6.91314 91.4042 6.84595C91.496 6.77877 91.5678 6.68779 91.6117 6.58282L93.4266 2.25782C93.475 2.146 93.5551 2.0508 93.657 1.98392C93.7589 1.91704 93.8781 1.88141 94 1.88141C94.1219 1.88141 94.2411 1.91704 94.343 1.98392C94.4449 2.0508 94.525 2.146 94.5734 2.25782Z" fill="#FFA634" stroke="#FFA634" stroke-width="2" stroke-linecap="round" stroke-linejoin="round"/>
</g>
<g clip-path="url(#clip4_268485_3431)">
<path d="M122.573 2.25782L124.388 6.58282C124.432 6.68779 124.504 6.77877 124.596 6.84595C124.688 6.91314 124.796 6.95398 124.909 6.96407L129.555 7.36564C129.678 7.37554 129.795 7.42179 129.892 7.49852C129.989 7.57525 130.061 7.67902 130.099 7.7967C130.137 7.91438 130.14 8.04068 130.106 8.15961C130.072 8.27855 130.004 8.38478 129.909 8.46486L126.385 11.5391C126.299 11.6143 126.236 11.7114 126.201 11.8199C126.166 11.9284 126.161 12.0444 126.187 12.1555L127.243 16.7289C127.271 16.8484 127.263 16.9734 127.22 17.0884C127.178 17.2034 127.102 17.3034 127.003 17.3757C126.904 17.4481 126.786 17.4898 126.663 17.4955C126.541 17.5012 126.419 17.4707 126.314 17.4078L122.322 14.986C122.225 14.927 122.114 14.8958 122 14.8958C121.886 14.8958 121.775 14.927 121.678 14.986L117.686 17.4078C117.581 17.4707 117.459 17.5012 117.337 17.4955C117.214 17.4898 117.096 17.4481 116.997 17.3757C116.898 17.3034 116.822 17.2034 116.78 17.0884C116.737 16.9734 116.729 16.8484 116.757 16.7289L117.813 12.1555C117.839 12.0444 117.834 11.9284 117.799 11.8199C117.764 11.7114 117.701 11.6143 117.615 11.5391L114.091 8.46486C113.996 8.38478 113.928 8.27855 113.894 8.15961C113.86 8.04068 113.863 7.91438 113.901 7.7967C113.939 7.67902 114.011 7.57525 114.108 7.49852C114.205 7.42179 114.322 7.37554 114.445 7.36564L119.091 6.96407C119.204 6.95398 119.312 6.91314 119.404 6.84595C119.496 6.77877 119.568 6.68779 119.612 6.58282L121.427 2.25782C121.475 2.146 121.555 2.0508 121.657 1.98392C121.759 1.91704 121.878 1.88141 122 1.88141C122.122 1.88141 122.241 1.91704 122.343 1.98392C122.445 2.0508 122.525 2.146 122.573 2.25782Z" fill="#FFA634" stroke="#FFA634" stroke-width="2" stroke-linecap="round" stroke-linejoin="round"/>
</g>
<defs>
<clipPath id="clip0_268485_3431">
<rect width="20" height="20" fill="white"/>
</clipPath>
<clipPath id="clip1_268485_3431">
<rect width="20" height="20" fill="white" transform="translate(28)"/>
</clipPath>
<clipPath id="clip2_268485_3431">
<rect width="20" height="20" fill="white" transform="translate(56)"/>
</clipPath>
<clipPath id="clip3_268485_3431">
<rect width="20" height="20" fill="white" transform="translate(84)"/>
</clipPath>
<clipPath id="clip4_268485_3431">
<rect width="20" height="20" fill="white" transform="translate(112)"/>
</clipPath>
</defs>
</svg>
